<svg preserveAspectRatio="none" width="100%" height="100%" overflow="visible" style="display: block;" viewBox="0 0 20 20" fill="none" xmlns="http://www.w3.org/2000/svg">
<path d="M6.1 10.4L10.9 5.6C12.1 4.4 14.05 4.4 15.25 5.6C16.45 6.8 16.45 8.75 15.25 9.95L9.95 15.25C8.25 16.95 5.5 16.95 3.8 15.25C2.1 13.55 2.1 10.8 3.8 9.1L9.1 3.8" stroke="currentColor" stroke-width="1.5" stroke-linecap="round" stroke-linejoin="round"/>
<path d="M7.65 12.05L12.15 7.55C12.55 7.15 13.2 7.15 13.6 7.55C14 7.95 14 8.6 13.6 9L8.6 14C7.7 14.9 6.25 14.9 5.35 14C4.45 13.1 4.45 11.65 5.35 10.75L6.1 10.4Z" fill="currentColor" opacity="0.12"/>
</svg>
