<svg preserveAspectRatio="none" width="100%" height="100%" overflow="visible" style="display: block;" viewBox="0 0 20 20" fill="none" xmlns="http://www.w3.org/2000/svg">
<path d="M2.75 6.4C2.75 5.35 3.6 4.5 4.65 4.5H8.1L9.45 5.9H15.35C16.4 5.9 17.25 6.75 17.25 7.8V14.1C17.25 15.15 16.4 16 15.35 16H4.65C3.6 16 2.75 15.15 2.75 14.1V6.4Z" fill="currentColor" opacity="0.12"/>
<path d="M2.75 6.4C2.75 5.35 3.6 4.5 4.65 4.5H8.1L9.45 5.9H15.35C16.4 5.9 17.25 6.75 17.25 7.8V14.1C17.25 15.15 16.4 16 15.35 16H4.65C3.6 16 2.75 15.15 2.75 14.1V6.4Z" stroke="currentColor" stroke-width="1.45" stroke-linejoin="round"/>
<path d="M3.2 8H16.8" stroke="currentColor" stroke-width="1.45" stroke-linecap="round"/>
</svg>
