<svg preserveAspectRatio="none" width="100%" height="100%" overflow="visible" style="display: block;" viewBox="0 0 20 20" fill="none" xmlns="http://www.w3.org/2000/svg">
<path d="M4.25 4.75C4.25 3.8 5 3.05 5.95 3.05H14.05C15 3.05 15.75 3.8 15.75 4.75V15.25C15.75 16.2 15 16.95 14.05 16.95H5.95C5 16.95 4.25 16.2 4.25 15.25V4.75Z" fill="currentColor" opacity="0.12"/>
<path d="M4.25 4.75C4.25 3.8 5 3.05 5.95 3.05H14.05C15 3.05 15.75 3.8 15.75 4.75V15.25C15.75 16.2 15 16.95 14.05 16.95H5.95C5 16.95 4.25 16.2 4.25 15.25V4.75Z" stroke="currentColor" stroke-width="1.45"/>
<path d="M7.25 7.25H12.75M7.25 10H12.75M7.25 12.75H10.5" stroke="currentColor" stroke-width="1.35" stroke-linecap="round"/>
<path d="M12.65 12.2L13.25 13.35L14.45 13.8L13.25 14.25L12.65 15.4L12.05 14.25L10.85 13.8L12.05 13.35L12.65 12.2Z" fill="currentColor"/>
</svg>
