<svg preserveAspectRatio="none" width="100%" height="100%" overflow="visible" style="display: block;" viewBox="0 0 20 20" fill="none" xmlns="http://www.w3.org/2000/svg">
<path d="M4.2 14.85L5.3 10.85L11.6 4.55C12.45 3.7 13.85 3.7 14.7 4.55L15.45 5.3C16.3 6.15 16.3 7.55 15.45 8.4L9.15 14.7L5.15 15.8C4.55 15.95 4.05 15.45 4.2 14.85Z" fill="currentColor" opacity="0.12"/>
<path d="M5.3 10.85L11.6 4.55C12.45 3.7 13.85 3.7 14.7 4.55L15.45 5.3C16.3 6.15 16.3 7.55 15.45 8.4L9.15 14.7L5.15 15.8C4.55 15.95 4.05 15.45 4.2 14.85L5.3 10.85Z" stroke="currentColor" stroke-width="1.45" stroke-linejoin="round"/>
<path d="M10.9 5.3L14.7 9.1M5.45 10.8L9.2 14.55" stroke="currentColor" stroke-width="1.35" stroke-linecap="round"/>
</svg>
