<svg width="260" height="164" viewBox="0 0 260 164" fill="none" xmlns="http://www.w3.org/2000/svg" role="img" aria-labelledby="title-3-truths desc-3-truths">
  <title id="title-3-truths">Three Truths</title>
  <desc id="desc-3-truths">Simplified preview illustration for Three Truths.</desc>
  <rect width="260" height="164" fill="#eef3f1"/>
  <path d="M0 126 C38 113 57 143 96 130 C132 118 150 139 188 124 C219 112 237 118 260 104 V164 H0 Z" fill="#dde9e4"/>
  <circle cx="220" cy="35" r="24" fill="#f7df9a" opacity="0.7"/>
  <rect x="18" y="14" width="224" height="136" rx="14" fill="#ffffff" stroke="#d5dfdd" stroke-width="1.5"/>
  <rect x="30" y="26" width="200" height="112" rx="10" fill="#f8faf9"/>
  <rect x="45" y="42" width="58" height="70" rx="8" fill="#ffffff" stroke="#dbe3ea" stroke-width="1.5"/>
<rect x="101" y="34" width="58" height="78" rx="8" fill="#ffffff" stroke="#dbe3ea" stroke-width="1.5"/>
<rect x="157" y="46" width="58" height="66" rx="8" fill="#ffffff" stroke="#dbe3ea" stroke-width="1.5"/>
<circle cx="74" cy="65" r="13" fill="#73b89c"/>
<circle cx="130" cy="61" r="13" fill="#68a7d8"/>
<circle cx="186" cy="68" r="13" fill="#f2bd65"/>
<text x="74" y="99" font-family="Inter, Segoe UI, Arial, sans-serif" font-size="16" font-weight="700" fill="#3f4b55" text-anchor="middle">1</text>
<text x="130" y="99" font-family="Inter, Segoe UI, Arial, sans-serif" font-size="16" font-weight="700" fill="#3f4b55" text-anchor="middle">2</text>
<text x="186" y="99" font-family="Inter, Segoe UI, Arial, sans-serif" font-size="16" font-weight="700" fill="#3f4b55" text-anchor="middle">3</text>
<path d="M 61 66 L 71 76 L 88 55" fill="none" stroke="#fff" stroke-width="4" stroke-linecap="round" stroke-linejoin="round"/>
<path d="M 118 64 L 127 73 L 144 53" fill="none" stroke="#fff" stroke-width="4" stroke-linecap="round" stroke-linejoin="round"/>
<path d="M 174 70 L 183 79 L 200 59" fill="none" stroke="#fff" stroke-width="4" stroke-linecap="round" stroke-linejoin="round"/>
</svg>
