<svg width="260" height="164" viewBox="0 0 260 164" fill="none" xmlns="http://www.w3.org/2000/svg" role="img" aria-labelledby="title-5-whys desc-5-whys">
  <title id="title-5-whys">Five Whys</title>
  <desc id="desc-5-whys">Simplified preview illustration for Five Whys.</desc>
  <rect width="260" height="164" fill="#eef3f1"/>
  <path d="M0 126 C38 113 57 143 96 130 C132 118 150 139 188 124 C219 112 237 118 260 104 V164 H0 Z" fill="#dde9e4"/>
  <circle cx="220" cy="35" r="24" fill="#f7df9a" opacity="0.7"/>
  <rect x="18" y="14" width="224" height="136" rx="14" fill="#ffffff" stroke="#d5dfdd" stroke-width="1.5"/>
  <rect x="30" y="26" width="200" height="112" rx="10" fill="#f8faf9"/>
  <text x="51" y="49" font-family="Inter, Segoe UI, Arial, sans-serif" font-size="15" font-weight="600" fill="#3f4b55">WHY?</text>
<circle cx="59" cy="82" r="13" fill="#fff" stroke="#dbe3ea" stroke-width="1.5"/>
<text x="59" y="87" font-family="Inter, Segoe UI, Arial, sans-serif" font-size="11" font-weight="700" fill="#5b6874" text-anchor="middle">1</text>
<circle cx="95" cy="82" r="13" fill="#fff" stroke="#dbe3ea" stroke-width="1.5"/>
<text x="95" y="87" font-family="Inter, Segoe UI, Arial, sans-serif" font-size="11" font-weight="700" fill="#5b6874" text-anchor="middle">2</text>
<circle cx="131" cy="82" r="13" fill="#fff" stroke="#dbe3ea" stroke-width="1.5"/>
<text x="131" y="87" font-family="Inter, Segoe UI, Arial, sans-serif" font-size="11" font-weight="700" fill="#5b6874" text-anchor="middle">3</text>
<circle cx="167" cy="82" r="13" fill="#fff" stroke="#dbe3ea" stroke-width="1.5"/>
<text x="167" y="87" font-family="Inter, Segoe UI, Arial, sans-serif" font-size="11" font-weight="700" fill="#5b6874" text-anchor="middle">4</text>
<circle cx="203" cy="82" r="13" fill="#fff" stroke="#dbe3ea" stroke-width="1.5"/>
<text x="203" y="87" font-family="Inter, Segoe UI, Arial, sans-serif" font-size="11" font-weight="700" fill="#5b6874" text-anchor="middle">5</text>
<path d="M 72 82 H 82 M 108 82 H 118 M 144 82 H 154 M 180 82 H 190" fill="none" stroke="#aab9c4" stroke-width="2" stroke-linecap="round" stroke-linejoin="round"/>
<path d="M 88 99 H 164 Q 172 99 172 107 V 114 Q 172 122 164 122 H 104 L 92 134 V 122 H 88 Q 80 122 80 114 V 107 Q 80 99 88 99 Z" fill="#fff" stroke="#dbe3ea" stroke-width="1.5" stroke-linecap="round" stroke-linejoin="round"/>
<rect x="94" y="114" width="62" height="4" rx="2" fill="#ccd7df"/>
<rect x="94" y="127" width="50" height="4" rx="2" fill="#ccd7df"/>
<circle cx="154" cy="106" r="5" fill="#ee7b73"/>
<path d="M 197 41 L 200.5 47.5 L 207 51 L 200.5 54.5 L 197 61 L 193.5 54.5 L 187 51 L 193.5 47.5 Z" fill="#f2bd65"/>
</svg>
