<svg width="260" height="164" viewBox="0 0 260 164" fill="none" xmlns="http://www.w3.org/2000/svg" role="img" aria-labelledby="title-ai-platformer desc-ai-platformer">
  <title id="title-ai-platformer">AI Platformer</title>
  <desc id="desc-ai-platformer">Simplified preview illustration for AI Platformer.</desc>
  <rect width="260" height="164" fill="#eef3f1"/>
  <path d="M0 126 C38 113 57 143 96 130 C132 118 150 139 188 124 C219 112 237 118 260 104 V164 H0 Z" fill="#dde9e4"/>
  <circle cx="220" cy="35" r="24" fill="#f7df9a" opacity="0.7"/>
  <rect x="18" y="14" width="224" height="136" rx="14" fill="#ffffff" stroke="#d5dfdd" stroke-width="1.5"/>
  <rect x="30" y="26" width="200" height="112" rx="10" fill="#f8faf9"/>
  <rect x="46" y="116" width="44" height="10" rx="3" fill="#73b89c"/>
<rect x="111" y="98" width="50" height="10" rx="3" fill="#73b89c"/>
<rect x="181" y="77" width="35" height="10" rx="3" fill="#73b89c"/>
<rect x="64" y="82" width="22" height="26" rx="4" fill="#68a7d8" stroke="#3879a8" stroke-width="1.5"/>
<circle cx="71" cy="93" r="3" fill="#fff"/>
<circle cx="80" cy="93" r="3" fill="#fff"/>
<rect x="69" y="102" width="12" height="3" rx="1.5" fill="#fff"/>
<path d="M 94 109 C 110 84 128 82 145 98" fill="none" stroke="#f2bd65" stroke-width="3" stroke-linecap="round" stroke-linejoin="round" stroke-dasharray="5 6"/>
<polygon points="194,47 209,77 179,77" fill="#ee7b73"/>
<circle cx="196" cy="44" r="5" fill="#f2bd65"/>
<circle cx="51" cy="52" r="2.1" fill="#bfd0d8"/>
<circle cx="60" cy="52" r="2.1" fill="#bfd0d8"/>
<circle cx="69" cy="52" r="2.1" fill="#bfd0d8"/>
<circle cx="78" cy="52" r="2.1" fill="#bfd0d8"/>
<circle cx="51" cy="61" r="2.1" fill="#bfd0d8"/>
<circle cx="60" cy="61" r="2.1" fill="#bfd0d8"/>
<circle cx="69" cy="61" r="2.1" fill="#bfd0d8"/>
<circle cx="78" cy="61" r="2.1" fill="#bfd0d8"/>
</svg>
