<svg width="260" height="164" viewBox="0 0 260 164" fill="none" xmlns="http://www.w3.org/2000/svg" role="img" aria-labelledby="title-attachment-style desc-attachment-style">
  <title id="title-attachment-style">Attachment Style</title>
  <desc id="desc-attachment-style">Simplified preview illustration for Attachment Style.</desc>
  <rect width="260" height="164" fill="#eef3f1"/>
  <path d="M0 126 C38 113 57 143 96 130 C132 118 150 139 188 124 C219 112 237 118 260 104 V164 H0 Z" fill="#dde9e4"/>
  <circle cx="220" cy="35" r="24" fill="#f7df9a" opacity="0.7"/>
  <rect x="18" y="14" width="224" height="136" rx="14" fill="#ffffff" stroke="#d5dfdd" stroke-width="1.5"/>
  <rect x="30" y="26" width="200" height="112" rx="10" fill="#f8faf9"/>
  <circle cx="85" cy="79" r="28" fill="#ffd7df" stroke="#ee9aad" stroke-width="2"/>
<circle cx="175" cy="79" r="28" fill="#d8ebf7" stroke="#8bbbd8" stroke-width="2"/>
<path d="M 104 80 C 122 58 138 58 156 80" fill="none" stroke="#73b89c" stroke-width="4" stroke-linecap="round" stroke-linejoin="round"/>
<path d="M 94 75 C 91 66 79 65 75 74 C 71 83 84 91 94 100 C 104 91 117 83 113 74 C 109 65 97 66 94 75 Z" fill="#ee7b73" stroke="#b84e55" stroke-width="1.5" stroke-linecap="round" stroke-linejoin="round"/>
<path d="M 165 80 C 165 68 185 68 185 80 V 96 H165 Z" fill="#68a7d8" stroke="#4f8eb8" stroke-width="2" stroke-linecap="round" stroke-linejoin="round"/>
<circle cx="175" cy="90" r="3" fill="#fff"/>
<text x="85" y="124" font-family="Inter, Segoe UI, Arial, sans-serif" font-size="8" font-weight="600" fill="#5b6874" text-anchor="middle">secure</text>
<text x="175" y="124" font-family="Inter, Segoe UI, Arial, sans-serif" font-size="8" font-weight="600" fill="#5b6874" text-anchor="middle">boundaries</text>
</svg>
