<svg width="260" height="164" viewBox="0 0 260 164" fill="none" xmlns="http://www.w3.org/2000/svg" role="img" aria-labelledby="title-c4e-mood-palette desc-c4e-mood-palette">
  <title id="title-c4e-mood-palette">Mood Palette</title>
  <desc id="desc-c4e-mood-palette">Simplified preview illustration for Mood Palette.</desc>
  <rect width="260" height="164" fill="#eef3f1"/>
  <path d="M0 126 C38 113 57 143 96 130 C132 118 150 139 188 124 C219 112 237 118 260 104 V164 H0 Z" fill="#dde9e4"/>
  <circle cx="220" cy="35" r="24" fill="#f7df9a" opacity="0.7"/>
  <rect x="18" y="14" width="224" height="136" rx="14" fill="#ffffff" stroke="#d5dfdd" stroke-width="1.5"/>
  <rect x="30" y="26" width="200" height="112" rx="10" fill="#f8faf9"/>
  <path d="M 100 45 C 133 45 146 71 136 93 C 128 110 110 103 101 115 C 92 127 58 115 58 83 C 58 60 76 45 100 45 Z" fill="#ffffff" stroke="#dbe3ea" stroke-width="1.5" stroke-linecap="round" stroke-linejoin="round"/>
<circle cx="84" cy="69" r="7" fill="#ee7b73"/>
<circle cx="105" cy="65" r="7" fill="#f2bd65"/>
<circle cx="122" cy="81" r="7" fill="#73b89c"/>
<circle cx="91" cy="92" r="7" fill="#68a7d8"/>
<circle cx="110" cy="95" r="9" fill="#f3f7f9" stroke="#dbe3ea" stroke-width="1.5"/>
<circle cx="163" cy="60" r="14" fill="#fff2cf" stroke="#e4cf8b" stroke-width="1.5"/>
<circle cx="196" cy="60" r="14" fill="#ffd7df" stroke="#ee9aad" stroke-width="1.5"/>
<circle cx="163" cy="100" r="14" fill="#d8ebf7" stroke="#8bbbd8" stroke-width="1.5"/>
<circle cx="196" cy="100" r="14" fill="#e7f3ed" stroke="#bddacb" stroke-width="1.5"/>
<path d="M 157 60 Q 163 66 169 60" fill="none" stroke="#8a6c23" stroke-width="2" stroke-linecap="round" stroke-linejoin="round"/>
<path d="M 190 60 Q 196 66 202 60" fill="none" stroke="#b84e55" stroke-width="2" stroke-linecap="round" stroke-linejoin="round"/>
<path d="M 157 102 H 169" fill="none" stroke="#4f8eb8" stroke-width="2" stroke-linecap="round" stroke-linejoin="round"/>
<path d="M 190 100 Q 196 94 202 100" fill="none" stroke="#4b7461" stroke-width="2" stroke-linecap="round" stroke-linejoin="round"/>
</svg>
