<svg width="260" height="164" viewBox="0 0 260 164" fill="none" xmlns="http://www.w3.org/2000/svg" role="img" aria-labelledby="title-c4e-coding-coach desc-c4e-coding-coach">
  <title id="title-c4e-coding-coach">Coding Coach</title>
  <desc id="desc-c4e-coding-coach">Simplified preview illustration for Coding Coach.</desc>
  <rect width="260" height="164" fill="#eef3f1"/>
  <path d="M0 126 C38 113 57 143 96 130 C132 118 150 139 188 124 C219 112 237 118 260 104 V164 H0 Z" fill="#dde9e4"/>
  <circle cx="220" cy="35" r="24" fill="#f7df9a" opacity="0.7"/>
  <rect x="18" y="14" width="224" height="136" rx="14" fill="#ffffff" stroke="#d5dfdd" stroke-width="1.5"/>
  <rect x="30" y="26" width="200" height="112" rx="10" fill="#f8faf9"/>
  <rect x="47" y="48" width="102" height="66" rx="7" fill="#ffffff" stroke="#dbe3ea" stroke-width="1.5"/>
<rect x="57" y="59" width="82" height="44" rx="4" fill="#eef5f6"/>
<rect x="73" y="114" width="50" height="6" rx="2" fill="#d4dee7"/>
<path d="M 55 126 L 141 126" fill="none" stroke="#9fb0bf" stroke-width="3" stroke-linecap="round" stroke-linejoin="round"/>
<circle cx="67" cy="70" r="4" fill="#73b89c"/>
<rect x="79" y="68" width="40" height="4" rx="2" fill="#b7c6d2"/>
<rect x="67" y="83" width="62" height="4" rx="2" fill="#d2dbe4"/>
<rect x="67" y="95" width="45" height="4" rx="2" fill="#d2dbe4"/>
<path d="M 157 50 H 201 Q 209 50 209 58 V 76 Q 209 84 201 84 H 173 L 161 96 V 84 H 157 Q 149 84 149 76 V 58 Q 149 50 157 50 Z" fill="#fff" stroke="#dbe3ea" stroke-width="1.5" stroke-linecap="round" stroke-linejoin="round"/>
<rect x="163" y="65" width="30" height="4" rx="2" fill="#ccd7df"/>
<rect x="163" y="78" width="18" height="4" rx="2" fill="#ccd7df"/>
<circle cx="191" cy="68" r="5" fill="#f2bd65"/>
<text x="98" y="86" font-family="Inter, Segoe UI, Arial, sans-serif" font-size="16" font-weight="800" fill="#4b7461" text-anchor="middle">&lt;/&gt;</text>
<circle cx="178" cy="102" r="16" fill="#ffd7df" stroke="#d8708a" stroke-width="2"/>
<path d="M 169 102 L 176 109 L 190 94" fill="none" stroke="#d8708a" stroke-width="3" stroke-linecap="round" stroke-linejoin="round"/>
<rect x="160" y="65" width="29" height="4" rx="2" fill="#ccd7df"/>
</svg>
