<svg width="260" height="164" viewBox="0 0 260 164" fill="none" xmlns="http://www.w3.org/2000/svg" role="img" aria-labelledby="title-dream desc-dream">
  <title id="title-dream">Dream</title>
  <desc id="desc-dream">Simplified preview illustration for Dream.</desc>
  <rect width="260" height="164" fill="#eef3f1"/>
  <path d="M0 126 C38 113 57 143 96 130 C132 118 150 139 188 124 C219 112 237 118 260 104 V164 H0 Z" fill="#dde9e4"/>
  <circle cx="220" cy="35" r="24" fill="#f7df9a" opacity="0.7"/>
  <rect x="18" y="14" width="224" height="136" rx="14" fill="#ffffff" stroke="#d5dfdd" stroke-width="1.5"/>
  <rect x="30" y="26" width="200" height="112" rx="10" fill="#f8faf9"/>
  <ellipse cx="102" cy="91" rx="42" ry="24" fill="#d8ebf7" stroke="#8bbbd8" stroke-width="1.5"/>
<ellipse cx="133" cy="81" rx="45" ry="27" fill="#e7f3ed" stroke="#bddacb" stroke-width="1.5"/>
<ellipse cx="160" cy="94" rx="36" ry="21" fill="#fff2cf" stroke="#e4cf8b" stroke-width="1.5"/>
<circle cx="91" cy="119" r="5" fill="#d8ebf7"/>
<circle cx="78" cy="129" r="3" fill="#d8ebf7"/>
<path d="M 174 44 L 176.8 49.2 L 182 52 L 176.8 54.8 L 174 60 L 171.2 54.8 L 166 52 L 171.2 49.2 Z" fill="#f2bd65"/>
<path d="M 202 65 L 203.75 68.25 L 207 70 L 203.75 71.75 L 202 75 L 200.25 71.75 L 197 70 L 200.25 68.25 Z" fill="#ee7b73"/>
<path d="M 154 72 L 155.75 75.25 L 159 77 L 155.75 78.75 L 154 82 L 152.25 78.75 L 149 77 L 152.25 75.25 Z" fill="#68a7d8"/>
<circle cx="212" cy="42" r="3" fill="#73b89c"/>
<path d="M 84 63 C 98 45 121 44 136 60" fill="none" stroke="#9fb0bf" stroke-width="3" stroke-linecap="round" stroke-linejoin="round"/>
</svg>
