<svg width="260" height="164" viewBox="0 0 260 164" fill="none" xmlns="http://www.w3.org/2000/svg" role="img" aria-labelledby="title-email-writing desc-email-writing">
  <title id="title-email-writing">Email Writing</title>
  <desc id="desc-email-writing">Simplified preview illustration for Email Writing.</desc>
  <rect width="260" height="164" fill="#eef3f1"/>
  <path d="M0 126 C38 113 57 143 96 130 C132 118 150 139 188 124 C219 112 237 118 260 104 V164 H0 Z" fill="#dde9e4"/>
  <circle cx="220" cy="35" r="24" fill="#f7df9a" opacity="0.7"/>
  <rect x="18" y="14" width="224" height="136" rx="14" fill="#ffffff" stroke="#d5dfdd" stroke-width="1.5"/>
  <rect x="30" y="26" width="200" height="112" rx="10" fill="#f8faf9"/>
  <rect x="49" y="47" width="112" height="78" rx="8" fill="#fff" stroke="#dbe3ea" stroke-width="1.5"/>
<path d="M 50 56 L 105 88 L 160 56" fill="none" stroke="#68a7d8" stroke-width="3" stroke-linecap="round" stroke-linejoin="round"/>
<rect x="66" y="91" width="70" height="4" rx="2" fill="#c8d2dc"/>
<rect x="66" y="104" width="54" height="4" rx="2" fill="#c8d2dc"/>
<path d="M 170 111 L 194 55 L 205 66 L 181 122 L 166 128 Z" fill="#fff2cf" stroke="#d7b85f" stroke-width="2" stroke-linecap="round" stroke-linejoin="round"/>
<path d="M 194 55 L 205 66" fill="none" stroke="#3f4b55" stroke-width="2" stroke-linecap="round" stroke-linejoin="round"/>
<circle cx="198" cy="47" r="5" fill="#ee7b73"/>
</svg>
