<svg width="260" height="164" viewBox="0 0 260 164" fill="none" xmlns="http://www.w3.org/2000/svg" role="img" aria-labelledby="title-feelings-machine desc-feelings-machine">
  <title id="title-feelings-machine">Feelings Machine</title>
  <desc id="desc-feelings-machine">Simplified preview illustration for Feelings Machine.</desc>
  <rect width="260" height="164" fill="#eef3f1"/>
  <path d="M0 126 C38 113 57 143 96 130 C132 118 150 139 188 124 C219 112 237 118 260 104 V164 H0 Z" fill="#dde9e4"/>
  <circle cx="220" cy="35" r="24" fill="#f7df9a" opacity="0.7"/>
  <rect x="18" y="14" width="224" height="136" rx="14" fill="#ffffff" stroke="#d5dfdd" stroke-width="1.5"/>
  <rect x="30" y="26" width="200" height="112" rx="10" fill="#f8faf9"/>
  <rect x="72" y="44" width="116" height="78" rx="12" fill="#fff" stroke="#dbe3ea" stroke-width="1.5"/>
<rect x="90" y="60" width="80" height="36" rx="8" fill="#eef5f6"/>
<circle cx="112" cy="78" r="5" fill="#3f4b55"/>
<circle cx="148" cy="78" r="5" fill="#3f4b55"/>
<path d="M 116 88 Q 130 98 144 88" fill="none" stroke="#73b89c" stroke-width="3" stroke-linecap="round" stroke-linejoin="round"/>
<rect x="98" y="112" width="64" height="10" rx="4" fill="#d4dee7"/>
<circle cx="60" cy="80" r="12" fill="#ffd7df" stroke="#ee9aad" stroke-width="1.5"/>
<circle cx="200" cy="80" r="12" fill="#d8ebf7" stroke="#8bbbd8" stroke-width="1.5"/>
<path d="M 190 38 L 192.45 42.55 L 197 45 L 192.45 47.45 L 190 52 L 187.55 47.45 L 183 45 L 187.55 42.55 Z" fill="#f2bd65"/>
</svg>
