<svg width="260" height="164" viewBox="0 0 260 164" fill="none" xmlns="http://www.w3.org/2000/svg" role="img" aria-labelledby="title-flashcards desc-flashcards">
  <title id="title-flashcards">Flashcards</title>
  <desc id="desc-flashcards">Simplified preview illustration for Flashcards.</desc>
  <rect width="260" height="164" fill="#eef3f1"/>
  <path d="M0 126 C38 113 57 143 96 130 C132 118 150 139 188 124 C219 112 237 118 260 104 V164 H0 Z" fill="#dde9e4"/>
  <circle cx="220" cy="35" r="24" fill="#f7df9a" opacity="0.7"/>
  <rect x="18" y="14" width="224" height="136" rx="14" fill="#ffffff" stroke="#d5dfdd" stroke-width="1.5"/>
  <rect x="30" y="26" width="200" height="112" rx="10" fill="#f8faf9"/>
  <rect x="72" y="47" width="72" height="82" rx="8" fill="#fff" stroke="#dbe3ea" stroke-width="1.5" transform="rotate(-8 72 47)"/>
<rect x="105" y="39" width="78" height="88" rx="8" fill="#fff" stroke="#dbe3ea" stroke-width="1.5"/>
<text x="144" y="76" font-family="Inter, Segoe UI, Arial, sans-serif" font-size="24" font-weight="800" fill="#68a7d8" text-anchor="middle">Q</text>
<rect x="122" y="95" width="43" height="4" rx="2" fill="#c8d2dc"/>
<rect x="122" y="108" width="32" height="4" rx="2" fill="#c8d2dc"/>
<circle cx="92" cy="121" r="7" fill="#73b89c"/>
<path d="M 88 121 L 92 125 L 99 116" fill="none" stroke="#fff" stroke-width="2.5" stroke-linecap="round" stroke-linejoin="round"/>
</svg>
