<svg width="260" height="164" viewBox="0 0 260 164" fill="none" xmlns="http://www.w3.org/2000/svg" role="img" aria-labelledby="title-forest-explorer desc-forest-explorer">
  <title id="title-forest-explorer">Forest Explorer</title>
  <desc id="desc-forest-explorer">Simplified preview illustration for Forest Explorer.</desc>
  <rect width="260" height="164" fill="#eef3f1"/>
  <path d="M0 126 C38 113 57 143 96 130 C132 118 150 139 188 124 C219 112 237 118 260 104 V164 H0 Z" fill="#dde9e4"/>
  <circle cx="220" cy="35" r="24" fill="#f7df9a" opacity="0.7"/>
  <rect x="18" y="14" width="224" height="136" rx="14" fill="#ffffff" stroke="#d5dfdd" stroke-width="1.5"/>
  <rect x="30" y="26" width="200" height="112" rx="10" fill="#f8faf9"/>
  <polygon points="66,119 90,63 114,119" fill="#73b89c" stroke="#4b7461" stroke-width="2" stroke-linejoin="round"/>
<polygon points="105,119 131,51 158,119" fill="#5fa987" stroke="#4b7461" stroke-width="2" stroke-linejoin="round"/>
<polygon points="151,119 174,68 199,119" fill="#82c49d" stroke="#4b7461" stroke-width="2" stroke-linejoin="round"/>
<path d="M 130 119 L 130 137" fill="none" stroke="#7d684d" stroke-width="5" stroke-linecap="round" stroke-linejoin="round"/>
<path d="M 55 137 H 205" fill="none" stroke="#7d9b6e" stroke-width="4" stroke-linecap="round" stroke-linejoin="round"/>
<circle cx="185" cy="51" r="10" fill="#f7df9a"/>
<path d="M 66 60 C 93 38 127 35 153 49" fill="none" stroke="#9fb0bf" stroke-width="2" stroke-linecap="round" stroke-linejoin="round" stroke-dasharray="4 6"/>
</svg>
