<svg width="260" height="164" viewBox="0 0 260 164" fill="none" xmlns="http://www.w3.org/2000/svg" role="img" aria-labelledby="title-life-weeks desc-life-weeks">
  <title id="title-life-weeks">Life Weeks</title>
  <desc id="desc-life-weeks">Simplified preview illustration for Life Weeks.</desc>
  <rect width="260" height="164" fill="#eef3f1"/>
  <path d="M0 126 C38 113 57 143 96 130 C132 118 150 139 188 124 C219 112 237 118 260 104 V164 H0 Z" fill="#dde9e4"/>
  <circle cx="220" cy="35" r="24" fill="#f7df9a" opacity="0.7"/>
  <rect x="18" y="14" width="224" height="136" rx="14" fill="#ffffff" stroke="#d5dfdd" stroke-width="1.5"/>
  <rect x="30" y="26" width="200" height="112" rx="10" fill="#f8faf9"/>
  <rect x="48" y="43" width="164" height="84" rx="8" fill="#ffffff" stroke="#dbe3ea" stroke-width="1.5"/>
<path d="M 56 50 L 56 120" fill="none" stroke="#e3ebf0" stroke-width="1" stroke-linecap="round" stroke-linejoin="round"/>
<path d="M 68 50 L 68 120" fill="none" stroke="#e3ebf0" stroke-width="1" stroke-linecap="round" stroke-linejoin="round"/>
<path d="M 80 50 L 80 120" fill="none" stroke="#e3ebf0" stroke-width="1" stroke-linecap="round" stroke-linejoin="round"/>
<path d="M 92 50 L 92 120" fill="none" stroke="#e3ebf0" stroke-width="1" stroke-linecap="round" stroke-linejoin="round"/>
<path d="M 104 50 L 104 120" fill="none" stroke="#e3ebf0" stroke-width="1" stroke-linecap="round" stroke-linejoin="round"/>
<path d="M 116 50 L 116 120" fill="none" stroke="#e3ebf0" stroke-width="1" stroke-linecap="round" stroke-linejoin="round"/>
<path d="M 128 50 L 128 120" fill="none" stroke="#e3ebf0" stroke-width="1" stroke-linecap="round" stroke-linejoin="round"/>
<path d="M 140 50 L 140 120" fill="none" stroke="#e3ebf0" stroke-width="1" stroke-linecap="round" stroke-linejoin="round"/>
<path d="M 152 50 L 152 120" fill="none" stroke="#e3ebf0" stroke-width="1" stroke-linecap="round" stroke-linejoin="round"/>
<path d="M 164 50 L 164 120" fill="none" stroke="#e3ebf0" stroke-width="1" stroke-linecap="round" stroke-linejoin="round"/>
<path d="M 176 50 L 176 120" fill="none" stroke="#e3ebf0" stroke-width="1" stroke-linecap="round" stroke-linejoin="round"/>
<path d="M 188 50 L 188 120" fill="none" stroke="#e3ebf0" stroke-width="1" stroke-linecap="round" stroke-linejoin="round"/>
<path d="M 200 50 L 200 120" fill="none" stroke="#e3ebf0" stroke-width="1" stroke-linecap="round" stroke-linejoin="round"/>
<path d="M 48 55 L 212 55" fill="none" stroke="#e3ebf0" stroke-width="1" stroke-linecap="round" stroke-linejoin="round"/>
<path d="M 48 67 L 212 67" fill="none" stroke="#e3ebf0" stroke-width="1" stroke-linecap="round" stroke-linejoin="round"/>
<path d="M 48 79 L 212 79" fill="none" stroke="#e3ebf0" stroke-width="1" stroke-linecap="round" stroke-linejoin="round"/>
<path d="M 48 91 L 212 91" fill="none" stroke="#e3ebf0" stroke-width="1" stroke-linecap="round" stroke-linejoin="round"/>
<path d="M 48 103 L 212 103" fill="none" stroke="#e3ebf0" stroke-width="1" stroke-linecap="round" stroke-linejoin="round"/>
<path d="M 48 115 L 212 115" fill="none" stroke="#e3ebf0" stroke-width="1" stroke-linecap="round" stroke-linejoin="round"/>
<circle cx="57" cy="58" r="2.4" fill="#73b89c"/>
<circle cx="71" cy="58" r="2.4" fill="#73b89c"/>
<circle cx="85" cy="58" r="2.4" fill="#73b89c"/>
<circle cx="99" cy="58" r="2.4" fill="#73b89c"/>
<circle cx="113" cy="58" r="2.4" fill="#73b89c"/>
<circle cx="127" cy="58" r="2.4" fill="#73b89c"/>
<circle cx="141" cy="58" r="2.4" fill="#73b89c"/>
<circle cx="155" cy="58" r="2.4" fill="#73b89c"/>
<circle cx="169" cy="58" r="2.4" fill="#73b89c"/>
<circle cx="183" cy="58" r="2.4" fill="#73b89c"/>
<circle cx="197" cy="58" r="2.4" fill="#73b89c"/>
<circle cx="57" cy="70" r="2.4" fill="#73b89c"/>
<circle cx="71" cy="70" r="2.4" fill="#73b89c"/>
<circle cx="85" cy="70" r="2.4" fill="#73b89c"/>
<circle cx="99" cy="70" r="2.4" fill="#73b89c"/>
<circle cx="113" cy="70" r="2.4" fill="#73b89c"/>
<circle cx="127" cy="70" r="2.4" fill="#73b89c"/>
<circle cx="141" cy="70" r="2.4" fill="#73b89c"/>
<circle cx="155" cy="70" r="2.4" fill="#73b89c"/>
<circle cx="169" cy="70" r="2.4" fill="#73b89c"/>
<circle cx="183" cy="70" r="2.4" fill="#73b89c"/>
<circle cx="197" cy="70" r="2.4" fill="#73b89c"/>
<circle cx="57" cy="82" r="2.4" fill="#73b89c"/>
<circle cx="71" cy="82" r="2.4" fill="#73b89c"/>
<circle cx="85" cy="82" r="2.4" fill="#73b89c"/>
<circle cx="99" cy="82" r="2.4" fill="#73b89c"/>
<circle cx="113" cy="82" r="2.4" fill="#73b89c"/>
<circle cx="127" cy="82" r="2.4" fill="#73b89c"/>
<circle cx="141" cy="82" r="2.4" fill="#73b89c"/>
<circle cx="155" cy="82" r="2.4" fill="#73b89c"/>
<circle cx="169" cy="82" r="2.4" fill="#73b89c"/>
<circle cx="183" cy="82" r="2.4" fill="#73b89c"/>
<circle cx="197" cy="82" r="2.4" fill="#73b89c"/>
<circle cx="57" cy="94" r="2.4" fill="#73b89c"/>
<circle cx="71" cy="94" r="2.4" fill="#73b89c"/>
<circle cx="85" cy="94" r="2.4" fill="#73b89c"/>
<circle cx="99" cy="94" r="2.4" fill="#d2dbe4"/>
<circle cx="113" cy="94" r="2.4" fill="#d2dbe4"/>
<circle cx="127" cy="94" r="2.4" fill="#d2dbe4"/>
<circle cx="141" cy="94" r="2.4" fill="#d2dbe4"/>
<circle cx="155" cy="94" r="2.4" fill="#d2dbe4"/>
<circle cx="169" cy="94" r="2.4" fill="#d2dbe4"/>
<circle cx="183" cy="94" r="2.4" fill="#d2dbe4"/>
<circle cx="197" cy="94" r="2.4" fill="#d2dbe4"/>
<circle cx="57" cy="106" r="2.4" fill="#d2dbe4"/>
<circle cx="71" cy="106" r="2.4" fill="#d2dbe4"/>
<circle cx="85" cy="106" r="2.4" fill="#d2dbe4"/>
<circle cx="99" cy="106" r="2.4" fill="#d2dbe4"/>
<circle cx="113" cy="106" r="2.4" fill="#d2dbe4"/>
<circle cx="127" cy="106" r="2.4" fill="#d2dbe4"/>
<circle cx="141" cy="106" r="2.4" fill="#d2dbe4"/>
<circle cx="155" cy="106" r="2.4" fill="#d2dbe4"/>
<circle cx="169" cy="106" r="2.4" fill="#d2dbe4"/>
<circle cx="183" cy="106" r="2.4" fill="#d2dbe4"/>
<circle cx="197" cy="106" r="2.4" fill="#d2dbe4"/>
<path d="M 174 58 L 184 68 L 204 47" fill="none" stroke="#ee7b73" stroke-width="4" stroke-linecap="round" stroke-linejoin="round"/>
</svg>
