<svg width="260" height="164" viewBox="0 0 260 164" fill="none" xmlns="http://www.w3.org/2000/svg" role="img" aria-labelledby="title-origin-stories desc-origin-stories">
  <title id="title-origin-stories">Origin Stories</title>
  <desc id="desc-origin-stories">Simplified preview illustration for Origin Stories.</desc>
  <rect width="260" height="164" fill="#eef3f1"/>
  <path d="M0 126 C38 113 57 143 96 130 C132 118 150 139 188 124 C219 112 237 118 260 104 V164 H0 Z" fill="#dde9e4"/>
  <circle cx="220" cy="35" r="24" fill="#f7df9a" opacity="0.7"/>
  <rect x="18" y="14" width="224" height="136" rx="14" fill="#ffffff" stroke="#d5dfdd" stroke-width="1.5"/>
  <rect x="30" y="26" width="200" height="112" rx="10" fill="#f8faf9"/>
  <path d="M 58 54 Q 84 44 110 54 V 119 Q 84 109 58 119 Z" fill="#ffffff" stroke="#dbe3ea" stroke-width="1.5" stroke-linecap="round" stroke-linejoin="round"/>
<path d="M 110 54 Q 136 44 162 54 V 119 Q 136 109 110 119 Z" fill="#ffffff" stroke="#dbe3ea" stroke-width="1.5" stroke-linecap="round" stroke-linejoin="round"/>
<path d="M 110 56 L 110 121" fill="none" stroke="#c7d2dc" stroke-width="2" stroke-linecap="round" stroke-linejoin="round"/>
<rect x="70" y="74" width="28" height="4" rx="2" fill="#c8d2dc"/>
<rect x="70" y="88" width="34" height="4" rx="2" fill="#c8d2dc"/>
<rect x="122" y="74" width="31" height="4" rx="2" fill="#c8d2dc"/>
<rect x="122" y="88" width="22" height="6" rx="3" fill="#f2bd65"/>
<path d="M 164 114 C 166 93 153 83 158 67 C 162 55 177 50 190 43" fill="none" stroke="#7d684d" stroke-width="5" stroke-linecap="round" stroke-linejoin="round"/>
<circle cx="190" cy="43" r="9" fill="#73b89c"/>
<circle cx="177" cy="51" r="8" fill="#73b89c"/>
<circle cx="183" cy="61" r="7" fill="#82c49d"/>
<path d="M 162 114 C 177 113 190 119 201 130" fill="none" stroke="#7d9b6e" stroke-width="3" stroke-linecap="round" stroke-linejoin="round"/>
<path d="M 73 36 L 75.1 39.9 L 79 42 L 75.1 44.1 L 73 48 L 70.9 44.1 L 67 42 L 70.9 39.9 Z" fill="#68a7d8"/>
</svg>
