<svg width="260" height="164" viewBox="0 0 260 164" fill="none" xmlns="http://www.w3.org/2000/svg" role="img" aria-labelledby="title-perfect-circle desc-perfect-circle">
  <title id="title-perfect-circle">Perfect Circle</title>
  <desc id="desc-perfect-circle">Simplified preview illustration for Perfect Circle.</desc>
  <rect width="260" height="164" fill="#eef3f1"/>
  <path d="M0 126 C38 113 57 143 96 130 C132 118 150 139 188 124 C219 112 237 118 260 104 V164 H0 Z" fill="#dde9e4"/>
  <circle cx="220" cy="35" r="24" fill="#f7df9a" opacity="0.7"/>
  <rect x="18" y="14" width="224" height="136" rx="14" fill="#ffffff" stroke="#d5dfdd" stroke-width="1.5"/>
  <rect x="30" y="26" width="200" height="112" rx="10" fill="#f8faf9"/>
  <circle cx="130" cy="82" r="44" fill="#fff" stroke="#dbe3ea" stroke-width="2"/>
<circle cx="130" cy="82" r="36" fill="none" stroke="#68a7d8" stroke-width="5"/>
<circle cx="130" cy="82" r="3" fill="#3f4b55"/>
<path d="M 130 38 V 50 M 130 114 V 126 M 86 82 H 98 M 162 82 H 174" fill="none" stroke="#9fb0bf" stroke-width="2" stroke-linecap="round" stroke-linejoin="round"/>
<text x="130" y="137" font-family="Inter, Segoe UI, Arial, sans-serif" font-size="10" font-weight="800" fill="#4f8eb8" text-anchor="middle">100%</text>
</svg>
