<svg width="260" height="164" viewBox="0 0 260 164" fill="none" xmlns="http://www.w3.org/2000/svg" role="img" aria-labelledby="title-petty desc-petty">
  <title id="title-petty">Petty</title>
  <desc id="desc-petty">Simplified preview illustration for Petty.</desc>
  <rect width="260" height="164" fill="#eef3f1"/>
  <path d="M0 126 C38 113 57 143 96 130 C132 118 150 139 188 124 C219 112 237 118 260 104 V164 H0 Z" fill="#dde9e4"/>
  <circle cx="220" cy="35" r="24" fill="#f7df9a" opacity="0.7"/>
  <rect x="18" y="14" width="224" height="136" rx="14" fill="#ffffff" stroke="#d5dfdd" stroke-width="1.5"/>
  <rect x="30" y="26" width="200" height="112" rx="10" fill="#f8faf9"/>
  <path d="M 68 55 H 110 Q 118 55 118 63 V 83 Q 118 91 110 91 H 84 L 72 103 V 91 H 68 Q 60 91 60 83 V 63 Q 60 55 68 55 Z" fill="#fff" stroke="#dbe3ea" stroke-width="1.5" stroke-linecap="round" stroke-linejoin="round"/>
<rect x="74" y="70" width="28" height="4" rx="2" fill="#ccd7df"/>
<rect x="74" y="83" width="16" height="4" rx="2" fill="#ccd7df"/>
<circle cx="100" cy="75" r="5" fill="#ee7b73"/>
<path d="M 145 51 H 196 Q 204 51 204 59 V 87 Q 204 95 196 95 H 161 L 149 107 V 95 H 145 Q 137 95 137 87 V 59 Q 137 51 145 51 Z" fill="#fff" stroke="#dbe3ea" stroke-width="1.5" stroke-linecap="round" stroke-linejoin="round"/>
<rect x="151" y="66" width="37" height="4" rx="2" fill="#ccd7df"/>
<rect x="151" y="79" width="25" height="4" rx="2" fill="#ccd7df"/>
<circle cx="186" cy="79" r="5" fill="#68a7d8"/>
<circle cx="105" cy="112" r="14" fill="#ffd7df" stroke="#ee9aad" stroke-width="1.5"/>
<circle cx="155" cy="112" r="14" fill="#d8ebf7" stroke="#8bbbd8" stroke-width="1.5"/>
<path d="M 119 112 H 141" fill="none" stroke="#c5d0da" stroke-width="3" stroke-linecap="round" stroke-linejoin="round"/>
<path d="M 128 59 L 130.45 63.55 L 135 66 L 130.45 68.45 L 128 73 L 125.55 68.45 L 121 66 L 125.55 63.55 Z" fill="#f2bd65"/>
<text x="89" y="78" font-family="Inter, Segoe UI, Arial, sans-serif" font-size="14" font-weight="800" fill="#ee7b73" text-anchor="middle">...</text>
<text x="171" y="76" font-family="Inter, Segoe UI, Arial, sans-serif" font-size="14" font-weight="800" fill="#68a7d8" text-anchor="middle">?</text>
</svg>
