<svg width="260" height="164" viewBox="0 0 260 164" fill="none" xmlns="http://www.w3.org/2000/svg" role="img" aria-labelledby="title-qr-code desc-qr-code">
  <title id="title-qr-code">QR Code</title>
  <desc id="desc-qr-code">Simplified preview illustration for QR Code.</desc>
  <rect width="260" height="164" fill="#eef3f1"/>
  <path d="M0 126 C38 113 57 143 96 130 C132 118 150 139 188 124 C219 112 237 118 260 104 V164 H0 Z" fill="#dde9e4"/>
  <circle cx="220" cy="35" r="24" fill="#f7df9a" opacity="0.7"/>
  <rect x="18" y="14" width="224" height="136" rx="14" fill="#ffffff" stroke="#d5dfdd" stroke-width="1.5"/>
  <rect x="30" y="26" width="200" height="112" rx="10" fill="#f8faf9"/>
  <rect x="73" y="40" width="83" height="83" rx="8" fill="#fff" stroke="#dbe3ea" stroke-width="1.5"/>
<rect x="82" y="49" width="7" height="7" rx="1" fill="#3f4b55"/>
<rect x="90" y="49" width="7" height="7" rx="1" fill="#3f4b55"/>
<rect x="98" y="49" width="7" height="7" rx="1" fill="#3f4b55"/>
<rect x="82" y="57" width="7" height="7" rx="1" fill="#3f4b55"/>
<rect x="98" y="57" width="7" height="7" rx="1" fill="#3f4b55"/>
<rect x="82" y="65" width="7" height="7" rx="1" fill="#3f4b55"/>
<rect x="90" y="65" width="7" height="7" rx="1" fill="#3f4b55"/>
<rect x="98" y="65" width="7" height="7" rx="1" fill="#3f4b55"/>
<rect x="130" y="49" width="7" height="7" rx="1" fill="#3f4b55"/>
<rect x="138" y="49" width="7" height="7" rx="1" fill="#3f4b55"/>
<rect x="146" y="49" width="7" height="7" rx="1" fill="#3f4b55"/>
<rect x="130" y="57" width="7" height="7" rx="1" fill="#3f4b55"/>
<rect x="146" y="57" width="7" height="7" rx="1" fill="#3f4b55"/>
<rect x="130" y="65" width="7" height="7" rx="1" fill="#3f4b55"/>
<rect x="138" y="65" width="7" height="7" rx="1" fill="#3f4b55"/>
<rect x="146" y="65" width="7" height="7" rx="1" fill="#3f4b55"/>
<rect x="82" y="97" width="7" height="7" rx="1" fill="#3f4b55"/>
<rect x="90" y="97" width="7" height="7" rx="1" fill="#3f4b55"/>
<rect x="98" y="97" width="7" height="7" rx="1" fill="#3f4b55"/>
<rect x="82" y="105" width="7" height="7" rx="1" fill="#3f4b55"/>
<rect x="98" y="105" width="7" height="7" rx="1" fill="#3f4b55"/>
<rect x="82" y="113" width="7" height="7" rx="1" fill="#3f4b55"/>
<rect x="90" y="113" width="7" height="7" rx="1" fill="#3f4b55"/>
<rect x="98" y="113" width="7" height="7" rx="1" fill="#3f4b55"/>
<rect x="114" y="73" width="7" height="7" rx="1" fill="#3f4b55"/>
<rect x="122" y="81" width="7" height="7" rx="1" fill="#3f4b55"/>
<rect x="138" y="89" width="7" height="7" rx="1" fill="#3f4b55"/>
<rect x="114" y="97" width="7" height="7" rx="1" fill="#3f4b55"/>
<rect x="130" y="105" width="7" height="7" rx="1" fill="#3f4b55"/>
<rect x="146" y="113" width="7" height="7" rx="1" fill="#3f4b55"/>
<rect x="122" y="113" width="7" height="7" rx="1" fill="#3f4b55"/>
<rect x="106" y="105" width="7" height="7" rx="1" fill="#3f4b55"/>
<rect x="138" y="73" width="7" height="7" rx="1" fill="#3f4b55"/>
<rect x="170" y="50" width="46" height="82" rx="9" fill="#ffffff" stroke="#dbe3ea" stroke-width="1.5"/>
<rect x="177" y="62" width="32" height="52" rx="5" fill="#f3f7f9"/>
<circle cx="193" cy="122" r="2.5" fill="#b5c3cf"/>
<rect x="184" y="71" width="18" height="6" rx="3" fill="#73b89c"/>
<rect x="182" y="86" width="22" height="4" rx="2" fill="#ccd7df"/>
<rect x="182" y="98" width="18" height="4" rx="2" fill="#ccd7df"/>
<path d="M 151 84 H 169 M 162 76 L 170 84 L 162 92" fill="none" stroke="#68a7d8" stroke-width="3" stroke-linecap="round" stroke-linejoin="round"/>
<path d="M 195 36 L 197.1 39.9 L 201 42 L 197.1 44.1 L 195 48 L 192.9 44.1 L 189 42 L 192.9 39.9 Z" fill="#f2bd65"/>
</svg>
