<svg width="260" height="164" viewBox="0 0 260 164" fill="none" xmlns="http://www.w3.org/2000/svg" role="img" aria-labelledby="title-rhythm-machine desc-rhythm-machine">
  <title id="title-rhythm-machine">Rhythm Machine</title>
  <desc id="desc-rhythm-machine">Simplified preview illustration for Rhythm Machine.</desc>
  <rect width="260" height="164" fill="#eef3f1"/>
  <path d="M0 126 C38 113 57 143 96 130 C132 118 150 139 188 124 C219 112 237 118 260 104 V164 H0 Z" fill="#dde9e4"/>
  <circle cx="220" cy="35" r="24" fill="#f7df9a" opacity="0.7"/>
  <rect x="18" y="14" width="224" height="136" rx="14" fill="#ffffff" stroke="#d5dfdd" stroke-width="1.5"/>
  <rect x="30" y="26" width="200" height="112" rx="10" fill="#f8faf9"/>
  <rect x="49" y="52" width="162" height="70" rx="10" fill="#fff" stroke="#dbe3ea" stroke-width="1.5"/>
<circle cx="67" cy="72" r="6" fill="#ee7b73"/>
<circle cx="85" cy="72" r="6" fill="#d4dee7"/>
<circle cx="103" cy="72" r="6" fill="#d4dee7"/>
<circle cx="121" cy="72" r="6" fill="#ee7b73"/>
<circle cx="139" cy="72" r="6" fill="#d4dee7"/>
<circle cx="157" cy="72" r="6" fill="#d4dee7"/>
<circle cx="175" cy="72" r="6" fill="#ee7b73"/>
<circle cx="193" cy="72" r="6" fill="#d4dee7"/>
<rect x="68" y="92" width="8" height="18" rx="2" fill="#68a7d8"/>
<rect x="85" y="80" width="8" height="30" rx="2" fill="#68a7d8"/>
<rect x="102" y="98" width="8" height="12" rx="2" fill="#68a7d8"/>
<rect x="119" y="72" width="8" height="38" rx="2" fill="#68a7d8"/>
<rect x="136" y="85" width="8" height="25" rx="2" fill="#68a7d8"/>
<rect x="153" y="95" width="8" height="15" rx="2" fill="#68a7d8"/>
<rect x="170" y="76" width="8" height="34" rx="2" fill="#68a7d8"/>
<rect x="187" y="88" width="8" height="22" rx="2" fill="#68a7d8"/>
<path d="M 55 43 C 79 32 99 54 122 43 S 166 32 194 43" fill="none" stroke="#73b89c" stroke-width="3" stroke-linecap="round" stroke-linejoin="round"/>
</svg>
