<svg width="260" height="164" viewBox="0 0 260 164" fill="none" xmlns="http://www.w3.org/2000/svg" role="img" aria-labelledby="title-slack-project-insights desc-slack-project-insights">
  <title id="title-slack-project-insights">Project Chat Insights</title>
  <desc id="desc-slack-project-insights">Simplified preview illustration for Project Chat Insights.</desc>
  <rect width="260" height="164" fill="#eef3f1"/>
  <path d="M0 126 C38 113 57 143 96 130 C132 118 150 139 188 124 C219 112 237 118 260 104 V164 H0 Z" fill="#dde9e4"/>
  <circle cx="220" cy="35" r="24" fill="#f7df9a" opacity="0.7"/>
  <rect x="18" y="14" width="224" height="136" rx="14" fill="#ffffff" stroke="#d5dfdd" stroke-width="1.5"/>
  <rect x="30" y="26" width="200" height="112" rx="10" fill="#f8faf9"/>
  <path d="M 55 49 H 106 Q 114 49 114 57 V 75 Q 114 83 106 83 H 71 L 59 95 V 83 H 55 Q 47 83 47 75 V 57 Q 47 49 55 49 Z" fill="#fff" stroke="#dbe3ea" stroke-width="1.5" stroke-linecap="round" stroke-linejoin="round"/>
<rect x="61" y="64" width="37" height="4" rx="2" fill="#ccd7df"/>
<rect x="61" y="77" width="25" height="4" rx="2" fill="#ccd7df"/>
<circle cx="96" cy="67" r="5" fill="#68a7d8"/>
<path d="M 73 90 H 119 Q 127 90 127 98 V 114 Q 127 122 119 122 H 89 L 77 134 V 122 H 73 Q 65 122 65 114 V 98 Q 65 90 73 90 Z" fill="#fff" stroke="#dbe3ea" stroke-width="1.5" stroke-linecap="round" stroke-linejoin="round"/>
<rect x="79" y="105" width="32" height="4" rx="2" fill="#ccd7df"/>
<rect x="79" y="118" width="20" height="4" rx="2" fill="#ccd7df"/>
<circle cx="109" cy="106" r="5" fill="#73b89c"/>
<rect x="145" y="45" width="65" height="78" rx="8" fill="#ffffff" stroke="#dbe3ea" stroke-width="1.5"/>
<rect x="158" y="88" width="8" height="20" rx="2" fill="#f2bd65"/>
<rect x="170" y="74" width="8" height="34" rx="2" fill="#f2bd65"/>
<rect x="182" y="81" width="8" height="27" rx="2" fill="#f2bd65"/>
<rect x="194" y="62" width="8" height="46" rx="2" fill="#f2bd65"/>
<path d="M 154 97 C 172 71, 182 113, 200 85 S 232 77, 250 69" fill="none" stroke="#68a7d8" stroke-width="4" stroke-linecap="round" stroke-linejoin="round"/>
<circle cx="154" cy="97" r="4" fill="#fff" stroke="#68a7d8" stroke-width="2"/>
<circle cx="200" cy="85" r="4" fill="#fff" stroke="#68a7d8" stroke-width="2"/>
<circle cx="250" cy="69" r="4" fill="#fff" stroke="#68a7d8" stroke-width="2"/>
<circle cx="132" cy="75" r="6" fill="#ee7b73"/>
<circle cx="132" cy="101" r="6" fill="#73b89c"/>
<path d="M 126 75 H 145 M 126 101 H 145" fill="none" stroke="#aab9c4" stroke-width="2" stroke-linecap="round" stroke-linejoin="round"/>
</svg>
