<svg width="260" height="164" viewBox="0 0 260 164" fill="none" xmlns="http://www.w3.org/2000/svg" role="img" aria-labelledby="title-slime-soccer desc-slime-soccer">
  <title id="title-slime-soccer">Slime Soccer</title>
  <desc id="desc-slime-soccer">Simplified preview illustration for Slime Soccer.</desc>
  <rect width="260" height="164" fill="#eef3f1"/>
  <path d="M0 126 C38 113 57 143 96 130 C132 118 150 139 188 124 C219 112 237 118 260 104 V164 H0 Z" fill="#dde9e4"/>
  <circle cx="220" cy="35" r="24" fill="#f7df9a" opacity="0.7"/>
  <rect x="18" y="14" width="224" height="136" rx="14" fill="#ffffff" stroke="#d5dfdd" stroke-width="1.5"/>
  <rect x="30" y="26" width="200" height="112" rx="10" fill="#f8faf9"/>
  <ellipse cx="84" cy="100" rx="30" ry="20" fill="#73b89c" stroke="#4b7461" stroke-width="2"/>
<circle cx="75" cy="88" r="4" fill="#fff"/>
<circle cx="93" cy="88" r="4" fill="#fff"/>
<ellipse cx="176" cy="100" rx="30" ry="20" fill="#68a7d8" stroke="#4f8eb8" stroke-width="2"/>
<circle cx="167" cy="88" r="4" fill="#fff"/>
<circle cx="185" cy="88" r="4" fill="#fff"/>
<circle cx="130" cy="91" r="14" fill="#fff" stroke="#3f4b55" stroke-width="2"/>
<path d="M 40 123 H 220" fill="none" stroke="#7d9b6e" stroke-width="5" stroke-linecap="round" stroke-linejoin="round"/>
<rect x="54" y="56" width="32" height="42" rx="2" fill="none" stroke="#9fb0bf" stroke-width="3"/>
<rect x="174" y="56" width="32" height="42" rx="2" fill="none" stroke="#9fb0bf" stroke-width="3"/>
</svg>
