<svg width="260" height="164" viewBox="0 0 260 164" fill="none" xmlns="http://www.w3.org/2000/svg" role="img" aria-labelledby="title-sloth desc-sloth">
  <title id="title-sloth">Sloth</title>
  <desc id="desc-sloth">Simplified preview illustration for Sloth.</desc>
  <rect width="260" height="164" fill="#eef3f1"/>
  <path d="M0 126 C38 113 57 143 96 130 C132 118 150 139 188 124 C219 112 237 118 260 104 V164 H0 Z" fill="#dde9e4"/>
  <circle cx="220" cy="35" r="24" fill="#f7df9a" opacity="0.7"/>
  <rect x="18" y="14" width="224" height="136" rx="14" fill="#ffffff" stroke="#d5dfdd" stroke-width="1.5"/>
  <rect x="30" y="26" width="200" height="112" rx="10" fill="#f8faf9"/>
  <path d="M 58 52 H 203" fill="none" stroke="#7d684d" stroke-width="6" stroke-linecap="round" stroke-linejoin="round"/>
<path d="M 93 54 C 84 75 87 100 108 112 C 132 126 165 113 169 85 C 172 64 157 54 138 54 Z" fill="#c8ad86" stroke="#8b7354" stroke-width="2" stroke-linecap="round" stroke-linejoin="round"/>
<circle cx="130" cy="84" r="28" fill="#d8c0a0" stroke="#8b7354" stroke-width="2"/>
<ellipse cx="119" cy="81" rx="8" ry="12" fill="#5b4636"/>
<ellipse cx="141" cy="81" rx="8" ry="12" fill="#5b4636"/>
<circle cx="119" cy="80" r="3" fill="#fff"/>
<circle cx="141" cy="80" r="3" fill="#fff"/>
<path d="M 121 99 Q 130 105 139 99" fill="none" stroke="#5b4636" stroke-width="2" stroke-linecap="round" stroke-linejoin="round"/>
<path d="M 103 57 C 103 75 99 84 91 95 M 157 57 C 158 76 163 85 171 95" fill="none" stroke="#8b7354" stroke-width="5" stroke-linecap="round" stroke-linejoin="round"/>
</svg>
