<svg width="260" height="164" viewBox="0 0 260 164" fill="none" xmlns="http://www.w3.org/2000/svg" role="img" aria-labelledby="title-svg-movie desc-svg-movie">
  <title id="title-svg-movie">SVG Movie</title>
  <desc id="desc-svg-movie">Simplified preview illustration for SVG Movie.</desc>
  <rect width="260" height="164" fill="#eef3f1"/>
  <path d="M0 126 C38 113 57 143 96 130 C132 118 150 139 188 124 C219 112 237 118 260 104 V164 H0 Z" fill="#dde9e4"/>
  <circle cx="220" cy="35" r="24" fill="#f7df9a" opacity="0.7"/>
  <rect x="18" y="14" width="224" height="136" rx="14" fill="#ffffff" stroke="#d5dfdd" stroke-width="1.5"/>
  <rect x="30" y="26" width="200" height="112" rx="10" fill="#f8faf9"/>
  <rect x="55" y="47" width="150" height="82" rx="9" fill="#fff" stroke="#dbe3ea" stroke-width="1.5"/>
<rect x="66" y="59" width="128" height="46" rx="5" fill="#eef5f6"/>
<polygon points="118,70 118,94 139,82" fill="#68a7d8"/>
<rect x="62" y="112" width="12" height="9" rx="2" fill="#3f4b55"/>
<rect x="85" y="112" width="12" height="9" rx="2" fill="#3f4b55"/>
<rect x="108" y="112" width="12" height="9" rx="2" fill="#3f4b55"/>
<rect x="131" y="112" width="12" height="9" rx="2" fill="#3f4b55"/>
<rect x="154" y="112" width="12" height="9" rx="2" fill="#3f4b55"/>
<rect x="177" y="112" width="12" height="9" rx="2" fill="#3f4b55"/>
<text x="130" y="39" font-family="Inter, Segoe UI, Arial, sans-serif" font-size="12" font-weight="800" fill="#4f8eb8" text-anchor="middle">SVG</text>
<path d="M 72 47 L 84 34 H 174 L 188 47" fill="none" stroke="#9fb0bf" stroke-width="3" stroke-linecap="round" stroke-linejoin="round"/>
</svg>
