<svg width="260" height="164" viewBox="0 0 260 164" fill="none" xmlns="http://www.w3.org/2000/svg" role="img" aria-labelledby="title-trivia desc-trivia">
  <title id="title-trivia">Trivia</title>
  <desc id="desc-trivia">Simplified preview illustration for Trivia.</desc>
  <rect width="260" height="164" fill="#eef3f1"/>
  <path d="M0 126 C38 113 57 143 96 130 C132 118 150 139 188 124 C219 112 237 118 260 104 V164 H0 Z" fill="#dde9e4"/>
  <circle cx="220" cy="35" r="24" fill="#f7df9a" opacity="0.7"/>
  <rect x="18" y="14" width="224" height="136" rx="14" fill="#ffffff" stroke="#d5dfdd" stroke-width="1.5"/>
  <rect x="30" y="26" width="200" height="112" rx="10" fill="#f8faf9"/>
  <circle cx="130" cy="78" r="42" fill="#fff" stroke="#dbe3ea" stroke-width="2"/>
<text x="130" y="89" font-family="Inter, Segoe UI, Arial, sans-serif" font-size="38" font-weight="800" fill="#68a7d8" text-anchor="middle">?</text>
<circle cx="72" cy="61" r="13" fill="#fff2cf" stroke="#e4cf8b" stroke-width="1.5"/>
<text x="72" y="66" font-family="Inter, Segoe UI, Arial, sans-serif" font-size="11" font-weight="800" fill="#8a6c23" text-anchor="middle">A</text>
<circle cx="188" cy="61" r="13" fill="#ffd7df" stroke="#ee9aad" stroke-width="1.5"/>
<text x="188" y="66" font-family="Inter, Segoe UI, Arial, sans-serif" font-size="11" font-weight="800" fill="#b84e55" text-anchor="middle">B</text>
<rect x="91" y="119" width="78" height="12" rx="6" fill="#e7f3ed" stroke="#bddacb" stroke-width="1.5"/>
<path d="M 196 93 L 198.8 98.2 L 204 101 L 198.8 103.8 L 196 109 L 193.2 103.8 L 188 101 L 193.2 98.2 Z" fill="#f2bd65"/>
<path d="M 224 114 L 225.75 117.25 L 229 119 L 225.75 120.75 L 224 124 L 222.25 120.75 L 219 119 L 222.25 117.25 Z" fill="#ee7b73"/>
<path d="M 176 121 L 177.75 124.25 L 181 126 L 177.75 127.75 L 176 131 L 174.25 127.75 L 171 126 L 174.25 124.25 Z" fill="#68a7d8"/>
<circle cx="234" cy="91" r="3" fill="#73b89c"/>
</svg>
