<svg width="260" height="164" viewBox="0 0 260 164" fill="none" xmlns="http://www.w3.org/2000/svg" role="img" aria-labelledby="title-weekly-chronicle desc-weekly-chronicle">
  <title id="title-weekly-chronicle">Weekly Chronicle</title>
  <desc id="desc-weekly-chronicle">Simplified preview illustration for Weekly Chronicle.</desc>
  <rect width="260" height="164" fill="#eef3f1"/>
  <path d="M0 126 C38 113 57 143 96 130 C132 118 150 139 188 124 C219 112 237 118 260 104 V164 H0 Z" fill="#dde9e4"/>
  <circle cx="220" cy="35" r="24" fill="#f7df9a" opacity="0.7"/>
  <rect x="18" y="14" width="224" height="136" rx="14" fill="#ffffff" stroke="#d5dfdd" stroke-width="1.5"/>
  <rect x="30" y="26" width="200" height="112" rx="10" fill="#f8faf9"/>
  <rect x="52" y="43" width="78" height="78" rx="8" fill="#ffffff" stroke="#dbe3ea" stroke-width="1.5"/>
<rect x="52" y="43" width="78" height="18" rx="8" fill="#68a7d8"/>
<path d="M 68 49 L 68 37" fill="none" stroke="#3f4b55" stroke-width="3" stroke-linecap="round" stroke-linejoin="round"/>
<path d="M 114 49 L 114 37" fill="none" stroke="#3f4b55" stroke-width="3" stroke-linecap="round" stroke-linejoin="round"/>
<circle cx="68" cy="75" r="2.4" fill="#b9c7d2"/>
<circle cx="80" cy="75" r="2.4" fill="#b9c7d2"/>
<circle cx="92" cy="75" r="2.4" fill="#b9c7d2"/>
<circle cx="104" cy="75" r="2.4" fill="#b9c7d2"/>
<circle cx="116" cy="75" r="2.4" fill="#b9c7d2"/>
<circle cx="68" cy="87" r="2.4" fill="#b9c7d2"/>
<circle cx="80" cy="87" r="2.4" fill="#b9c7d2"/>
<circle cx="92" cy="87" r="2.4" fill="#b9c7d2"/>
<circle cx="104" cy="87" r="2.4" fill="#b9c7d2"/>
<circle cx="116" cy="87" r="2.4" fill="#b9c7d2"/>
<circle cx="68" cy="99" r="2.4" fill="#b9c7d2"/>
<circle cx="80" cy="99" r="2.4" fill="#b9c7d2"/>
<circle cx="92" cy="99" r="2.4" fill="#b9c7d2"/>
<circle cx="104" cy="99" r="2.4" fill="#b9c7d2"/>
<circle cx="116" cy="99" r="2.4" fill="#b9c7d2"/>
<rect x="139" y="43" width="78" height="96" rx="8" fill="#ffffff" stroke="#dbe3ea" stroke-width="1.5"/>
<rect x="151" y="57" width="32" height="6" rx="3" fill="#f2bd65"/>
<rect x="151" y="73" width="54" height="4" rx="2" fill="#c8d2dc"/>
<rect x="151" y="85" width="48" height="4" rx="2" fill="#c8d2dc"/>
<rect x="151" y="97" width="58" height="4" rx="2" fill="#c8d2dc"/>
<rect x="151" y="109" width="36" height="4" rx="2" fill="#c8d2dc"/>
<rect x="151" y="123" width="22" height="6" rx="3" fill="#e9eef3"/>
<path d="M 76 122 C 101 135 142 135 174 122" fill="none" stroke="#73b89c" stroke-width="3" stroke-linecap="round" stroke-linejoin="round"/>
<path d="M 202 44 L 204.45 48.55 L 209 51 L 204.45 53.45 L 202 58 L 199.55 53.45 L 195 51 L 199.55 48.55 Z" fill="#ee7b73"/>
<text x="91" y="59" font-family="Inter, Segoe UI, Arial, sans-serif" font-size="8" font-weight="800" fill="#fff" text-anchor="middle">WEEK</text>
</svg>
