<svg width="260" height="164" viewBox="0 0 260 164" fill="none" xmlns="http://www.w3.org/2000/svg" role="img" aria-labelledby="title-word-cloud desc-word-cloud">
  <title id="title-word-cloud">Word Cloud</title>
  <desc id="desc-word-cloud">Simplified preview illustration for Word Cloud.</desc>
  <rect width="260" height="164" fill="#eef3f1"/>
  <path d="M0 126 C38 113 57 143 96 130 C132 118 150 139 188 124 C219 112 237 118 260 104 V164 H0 Z" fill="#dde9e4"/>
  <circle cx="220" cy="35" r="24" fill="#f7df9a" opacity="0.7"/>
  <rect x="18" y="14" width="224" height="136" rx="14" fill="#ffffff" stroke="#d5dfdd" stroke-width="1.5"/>
  <rect x="30" y="26" width="200" height="112" rx="10" fill="#f8faf9"/>
  <ellipse cx="130" cy="85" rx="72" ry="42" fill="#fff" stroke="#dbe3ea" stroke-width="1.5"/>
<text x="130" y="78" font-family="Inter, Segoe UI, Arial, sans-serif" font-size="20" font-weight="700" fill="#68a7d8" text-anchor="middle">idea</text>
<text x="85" y="91" font-family="Inter, Segoe UI, Arial, sans-serif" font-size="12" font-weight="700" fill="#73b89c" text-anchor="middle">tone</text>
<text x="171" y="93" font-family="Inter, Segoe UI, Arial, sans-serif" font-size="12" font-weight="700" fill="#ee7b73" text-anchor="middle">draft</text>
<text x="112" y="109" font-family="Inter, Segoe UI, Arial, sans-serif" font-size="10" font-weight="700" fill="#5b6874" text-anchor="middle">clear</text>
<text x="151" y="58" font-family="Inter, Segoe UI, Arial, sans-serif" font-size="11" font-weight="700" fill="#f2bd65" text-anchor="middle">words</text>
<text x="98" y="65" font-family="Inter, Segoe UI, Arial, sans-serif" font-size="9" font-weight="700" fill="#8ba0ae" text-anchor="middle">map</text>
<text x="167" y="116" font-family="Inter, Segoe UI, Arial, sans-serif" font-size="9" font-weight="700" fill="#8ba0ae" text-anchor="middle">flow</text>
<path d="M 65 46 L 67.1 49.9 L 71 52 L 67.1 54.1 L 65 58 L 62.9 54.1 L 59 52 L 62.9 49.9 Z" fill="#f2bd65"/>
</svg>
