<svg width="260" height="164" viewBox="0 0 260 164" fill="none" xmlns="http://www.w3.org/2000/svg" role="img" aria-labelledby="title-writing-editor desc-writing-editor">
  <title id="title-writing-editor">Writing Editor</title>
  <desc id="desc-writing-editor">Simplified preview illustration for Writing Editor.</desc>
  <rect width="260" height="164" fill="#eef3f1"/>
  <path d="M0 126 C38 113 57 143 96 130 C132 118 150 139 188 124 C219 112 237 118 260 104 V164 H0 Z" fill="#dde9e4"/>
  <circle cx="220" cy="35" r="24" fill="#f7df9a" opacity="0.7"/>
  <rect x="18" y="14" width="224" height="136" rx="14" fill="#ffffff" stroke="#d5dfdd" stroke-width="1.5"/>
  <rect x="30" y="26" width="200" height="112" rx="10" fill="#f8faf9"/>
  <rect x="52" y="40" width="78" height="96" rx="8" fill="#ffffff" stroke="#dbe3ea" stroke-width="1.5"/>
<rect x="64" y="54" width="32" height="6" rx="3" fill="#68a7d8"/>
<rect x="64" y="70" width="54" height="4" rx="2" fill="#c8d2dc"/>
<rect x="64" y="82" width="48" height="4" rx="2" fill="#c8d2dc"/>
<rect x="64" y="94" width="58" height="4" rx="2" fill="#c8d2dc"/>
<rect x="64" y="106" width="36" height="4" rx="2" fill="#c8d2dc"/>
<rect x="64" y="120" width="22" height="6" rx="3" fill="#e9eef3"/>
<rect x="143" y="49" width="62" height="72" rx="8" fill="#fff" stroke="#dbe3ea" stroke-width="1.5"/>
<path d="M 157 70 L 167 80 L 190 57" fill="none" stroke="#73b89c" stroke-width="4" stroke-linecap="round" stroke-linejoin="round"/>
<rect x="154" y="93" width="39" height="4" rx="2" fill="#c8d2dc"/>
<rect x="154" y="106" width="29" height="4" rx="2" fill="#c8d2dc"/>
<path d="M 89 124 C 114 133 146 133 174 124" fill="none" stroke="#f2bd65" stroke-width="3" stroke-linecap="round" stroke-linejoin="round"/>
<path d="M 199 38 L 201.45 42.55 L 206 45 L 201.45 47.45 L 199 52 L 196.55 47.45 L 192 45 L 196.55 42.55 Z" fill="#ee7b73"/>
</svg>
