<svg width="16" height="16" viewBox="0 0 16 16" fill="none" xmlns="http://www.w3.org/2000/svg">
<path d="M10.2 2.35C11.15 2 12.25 2.2 13.05 3L11.2 4.85L11.15 6.15L12.45 6.1L14.3 4.25C14.65 5.2 14.45 6.3 13.65 7.1C12.85 7.9 11.65 8.1 10.65 7.75L5.15 13.25C4.55 13.85 3.55 13.85 2.95 13.25C2.35 12.65 2.35 11.65 2.95 11.05L8.45 5.55C8.1 4.55 8.3 3.35 9.1 2.55C9.42 2.23 9.8 2.05 10.2 2.35Z" fill="currentColor" opacity="0.12"/>
<path d="M10.2 2.35C11.15 2 12.25 2.2 13.05 3L11.2 4.85L11.15 6.15L12.45 6.1L14.3 4.25C14.65 5.2 14.45 6.3 13.65 7.1C12.85 7.9 11.65 8.1 10.65 7.75L5.15 13.25C4.55 13.85 3.55 13.85 2.95 13.25C2.35 12.65 2.35 11.65 2.95 11.05L8.45 5.55C8.1 4.55 8.3 3.35 9.1 2.55C9.42 2.23 9.8 2.05 10.2 2.35Z" stroke="currentColor" stroke-width="1.25" stroke-linejoin="round"/>
<circle cx="4.05" cy="12.15" r="0.55" fill="currentColor"/>
</svg>
