<svg width="18" height="16" viewBox="0 0 18 16" fill="none" xmlns="http://www.w3.org/2000/svg">
<path d="M2.25 5.85C2.25 4.9 3 4.15 3.95 4.15H14.05C15 4.15 15.75 4.9 15.75 5.85V12.05C15.75 13 15 13.75 14.05 13.75H3.95C3 13.75 2.25 13 2.25 12.05V5.85Z" fill="currentColor" opacity="0.12"/>
<path d="M2.25 5.85C2.25 4.9 3 4.15 3.95 4.15H14.05C15 4.15 15.75 4.9 15.75 5.85V12.05C15.75 13 15 13.75 14.05 13.75H3.95C3 13.75 2.25 13 2.25 12.05V5.85Z" stroke="currentColor" stroke-width="1.35" stroke-linejoin="round"/>
<path d="M6.4 4.15V3.25C6.4 2.7 6.85 2.25 7.4 2.25H10.6C11.15 2.25 11.6 2.7 11.6 3.25V4.15M2.55 7.75H15.45" stroke="currentColor" stroke-width="1.35" stroke-linecap="round"/>
<path d="M7.7 8.95H10.3" stroke="currentColor" stroke-width="1.35" stroke-linecap="round"/>
</svg>
