<svg width="18" height="16" viewBox="0 0 18 16" fill="none" xmlns="http://www.w3.org/2000/svg">
<path d="M2.25 4.8C2.25 3.85 3 3.1 3.95 3.1H7.15L8.4 4.45H14.05C15 4.45 15.75 5.2 15.75 6.15V12.05C15.75 13 15 13.75 14.05 13.75H3.95C3 13.75 2.25 13 2.25 12.05V4.8Z" fill="currentColor" opacity="0.12"/>
<path d="M2.25 4.8C2.25 3.85 3 3.1 3.95 3.1H7.15L8.4 4.45H14.05C15 4.45 15.75 5.2 15.75 6.15V12.05C15.75 13 15 13.75 14.05 13.75H3.95C3 13.75 2.25 13 2.25 12.05V4.8Z" stroke="currentColor" stroke-width="1.35" stroke-linejoin="round"/>
<path d="M2.55 6.8H15.45" stroke="currentColor" stroke-width="1.35" stroke-linecap="round"/>
<path d="M6.25 10.25L7.65 11.65L11.65 7.65" stroke="currentColor" stroke-width="1.3" stroke-linecap="round" stroke-linejoin="round"/>
</svg>
