<svg preserveAspectRatio="none" width="100%" height="100%" overflow="visible" style="display: block;" viewBox="0 0 20 20" fill="none" xmlns="http://www.w3.org/2000/svg">
<path d="M4 6.25C4 5.3 4.75 4.55 5.7 4.55H7.55C7.55 3.45 8.45 2.55 9.55 2.55C10.65 2.55 11.55 3.45 11.55 4.55H14.3C15.25 4.55 16 5.3 16 6.25V9.05H14.75C13.85 9.05 13.1 9.8 13.1 10.7C13.1 11.6 13.85 12.35 14.75 12.35H16V14.3C16 15.25 15.25 16 14.3 16H5.7C4.75 16 4 15.25 4 14.3V11.55C5.1 11.55 6 10.65 6 9.55C6 8.45 5.1 7.55 4 7.55V6.25Z" fill="currentColor" opacity="0.12"/>
<path d="M4 6.25C4 5.3 4.75 4.55 5.7 4.55H7.55C7.55 3.45 8.45 2.55 9.55 2.55C10.65 2.55 11.55 3.45 11.55 4.55H14.3C15.25 4.55 16 5.3 16 6.25V9.05H14.75C13.85 9.05 13.1 9.8 13.1 10.7C13.1 11.6 13.85 12.35 14.75 12.35H16V14.3C16 15.25 15.25 16 14.3 16H5.7C4.75 16 4 15.25 4 14.3V11.55C5.1 11.55 6 10.65 6 9.55C6 8.45 5.1 7.55 4 7.55V6.25Z" stroke="currentColor" stroke-width="1.4" stroke-linejoin="round"/>
</svg>
