<svg preserveAspectRatio="none" width="100%" height="100%" overflow="visible" style="display: block;" viewBox="0 0 20 20" fill="none" xmlns="http://www.w3.org/2000/svg">
<path d="M8.9 2.75H11.1L11.55 4.55C12.15 4.75 12.7 5 13.2 5.35L14.8 4.4L16.35 5.95L15.4 7.55C15.75 8.05 16 8.6 16.2 9.2L18 9.65V11.85L16.2 12.3C16 12.9 15.75 13.45 15.4 13.95L16.35 15.55L14.8 17.1L13.2 16.15C12.7 16.5 12.15 16.75 11.55 16.95L11.1 18.25H8.9L8.45 16.95C7.85 16.75 7.3 16.5 6.8 16.15L5.2 17.1L3.65 15.55L4.6 13.95C4.25 13.45 4 12.9 3.8 12.3L2 11.85V9.65L3.8 9.2C4 8.6 4.25 8.05 4.6 7.55L3.65 5.95L5.2 4.4L6.8 5.35C7.3 5 7.85 4.75 8.45 4.55L8.9 2.75Z" fill="currentColor" opacity="0.12"/>
<path d="M8.9 2.75H11.1L11.55 4.55C12.15 4.75 12.7 5 13.2 5.35L14.8 4.4L16.35 5.95L15.4 7.55C15.75 8.05 16 8.6 16.2 9.2L18 9.65V11.85L16.2 12.3C16 12.9 15.75 13.45 15.4 13.95L16.35 15.55L14.8 17.1L13.2 16.15C12.7 16.5 12.15 16.75 11.55 16.95L11.1 18.25H8.9L8.45 16.95C7.85 16.75 7.3 16.5 6.8 16.15L5.2 17.1L3.65 15.55L4.6 13.95C4.25 13.45 4 12.9 3.8 12.3L2 11.85V9.65L3.8 9.2C4 8.6 4.25 8.05 4.6 7.55L3.65 5.95L5.2 4.4L6.8 5.35C7.3 5 7.85 4.75 8.45 4.55L8.9 2.75Z" stroke="currentColor" stroke-width="1.35" stroke-linejoin="round"/>
<circle cx="10" cy="10.75" r="2.25" fill="currentColor" opacity="0.18"/>
<circle cx="10" cy="10.75" r="2.25" stroke="currentColor" stroke-width="1.35"/>
</svg>
