<svg preserveAspectRatio="none" width="100%" height="100%" overflow="visible" style="display: block;" viewBox="0 0 17.5 16.25" fill="none" xmlns="http://www.w3.org/2000/svg">
<path d="M8.75 14.15C7.15 12.65 5.75 11.3 4.55 10.05C3.15 8.6 2.45 7.35 2.45 6.25C2.45 4.45 3.75 3.1 5.5 3.1C6.55 3.1 7.55 3.65 8.15 4.5L8.75 5.35L9.35 4.5C9.95 3.65 10.95 3.1 12 3.1C13.75 3.1 15.05 4.45 15.05 6.25C15.05 7.35 14.35 8.6 12.95 10.05C11.75 11.3 10.35 12.65 8.75 14.15Z" fill="currentColor" opacity="0.13"/>
<path d="M8.75 14.15C7.15 12.65 5.75 11.3 4.55 10.05C3.15 8.6 2.45 7.35 2.45 6.25C2.45 4.45 3.75 3.1 5.5 3.1C6.55 3.1 7.55 3.65 8.15 4.5L8.75 5.35L9.35 4.5C9.95 3.65 10.95 3.1 12 3.1C13.75 3.1 15.05 4.45 15.05 6.25C15.05 7.35 14.35 8.6 12.95 10.05C11.75 11.3 10.35 12.65 8.75 14.15Z" stroke="currentColor" stroke-width="1.25" stroke-linejoin="round"/>
</svg>
