<svg preserveAspectRatio="none" width="100%" height="100%" overflow="visible" style="display: block;" viewBox="0 0 15.6248 15.6256" fill="none" xmlns="http://www.w3.org/2000/svg">
<path d="M3.05 11.95L3.9 8.75L9.85 2.8C10.65 2 11.95 2 12.75 2.8C13.55 3.6 13.55 4.9 12.75 5.7L6.8 11.65L3.6 12.5C3.25 12.6 2.95 12.3 3.05 11.95Z" fill="currentColor" opacity="0.14"/>
<path d="M3.9 8.75L9.85 2.8C10.65 2 11.95 2 12.75 2.8C13.55 3.6 13.55 4.9 12.75 5.7L6.8 11.65L3.6 12.5C3.25 12.6 2.95 12.3 3.05 11.95L3.9 8.75Z" stroke="currentColor" stroke-width="1.2" stroke-linejoin="round"/>
<path d="M9.25 3.45L12.1 6.3M3.95 8.75L6.8 11.6" stroke="currentColor" stroke-width="1.1" stroke-linecap="round"/>
</svg>
