<svg preserveAspectRatio="none" width="100%" height="100%" overflow="visible" style="display: block;" viewBox="0 0 19 16" fill="none" xmlns="http://www.w3.org/2000/svg">
<circle cx="7.15" cy="5.35" r="2.45" fill="currentColor" opacity="0.14"/>
<circle cx="7.15" cy="5.35" r="2.45" stroke="currentColor" stroke-width="1.35"/>
<path d="M2.7 13.55C3.1 11.25 4.75 10 7.15 10C9.55 10 11.2 11.25 11.6 13.55" fill="currentColor" opacity="0.12"/>
<path d="M2.7 13.55C3.1 11.25 4.75 10 7.15 10C9.55 10 11.2 11.25 11.6 13.55" stroke="currentColor" stroke-width="1.35" stroke-linecap="round"/>
<circle cx="13.1" cy="6.05" r="1.9" fill="currentColor" opacity="0.12"/>
<path d="M11.85 4.5C12.25 4.25 12.7 4.15 13.15 4.15C14.2 4.15 15.05 5 15.05 6.05C15.05 7.1 14.2 7.95 13.15 7.95C12.7 7.95 12.25 7.85 11.85 7.6" stroke="currentColor" stroke-width="1.25" stroke-linecap="round"/>
<path d="M12.6 10.15C14.45 10.35 15.65 11.45 16 13.2" stroke="currentColor" stroke-width="1.25" stroke-linecap="round"/>
</svg>
