<svg preserveAspectRatio="none" width="100%" height="100%" overflow="visible" style="display: block;" viewBox="0 0 18 16" fill="none" xmlns="http://www.w3.org/2000/svg">
<path d="M2.5 5.15C2.5 4.25 3.2 3.55 4.1 3.55H13.9C14.8 3.55 15.5 4.25 15.5 5.15V11.9C15.5 12.8 14.8 13.5 13.9 13.5H4.1C3.2 13.5 2.5 12.8 2.5 11.9V5.15Z" fill="currentColor" opacity="0.12"/>
<path d="M2.5 5.15C2.5 4.25 3.2 3.55 4.1 3.55H13.9C14.8 3.55 15.5 4.25 15.5 5.15V11.9C15.5 12.8 14.8 13.5 13.9 13.5H4.1C3.2 13.5 2.5 12.8 2.5 11.9V5.15Z" stroke="currentColor" stroke-width="1.35" stroke-linejoin="round"/>
<path d="M6.35 3.55V2.7C6.35 2.15 6.8 1.7 7.35 1.7H10.65C11.2 1.7 11.65 2.15 11.65 2.7V3.55M2.75 6.9H15.25" stroke="currentColor" stroke-width="1.35" stroke-linecap="round"/>
<path d="M7.9 9.6H10.1M9 8.5V10.7" stroke="currentColor" stroke-width="1.25" stroke-linecap="round"/>
</svg>
