<svg width="20" height="20" viewBox="0 0 20 20" fill="none" xmlns="http://www.w3.org/2000/svg">
<path d="M3.25 6.35C3.25 5.3 4.1 4.45 5.15 4.45H8.4L9.75 5.9H14.85C15.9 5.9 16.75 6.75 16.75 7.8V14.15C16.75 15.2 15.9 16.05 14.85 16.05H5.15C4.1 16.05 3.25 15.2 3.25 14.15V6.35Z" fill="currentColor" opacity="0.12"/>
<path d="M3.25 6.35C3.25 5.3 4.1 4.45 5.15 4.45H8.4L9.75 5.9H14.85C15.9 5.9 16.75 6.75 16.75 7.8V14.15C16.75 15.2 15.9 16.05 14.85 16.05H5.15C4.1 16.05 3.25 15.2 3.25 14.15V6.35Z" stroke="currentColor" stroke-width="1.45" stroke-linejoin="round"/>
<path d="M3.55 8.15H16.45" stroke="currentColor" stroke-width="1.45" stroke-linecap="round"/>
<path d="M7 12.1H13" stroke="currentColor" stroke-width="1.35" stroke-linecap="round"/>
</svg>
