<svg preserveAspectRatio="none" width="100%" height="100%" overflow="visible" style="display: block;" viewBox="0 0 17.9961 17" fill="none" xmlns="http://www.w3.org/2000/svg">
<path d="M2.25 5.75C2.25 4.8 3 4.05 3.95 4.05H7.1L8.35 5.35H14.05C15 5.35 15.75 6.1 15.75 7.05V13.05C15.75 14 15 14.75 14.05 14.75H3.95C3 14.75 2.25 14 2.25 13.05V5.75Z" fill="currentColor" opacity="0.12"/>
<path d="M2.25 5.75C2.25 4.8 3 4.05 3.95 4.05H7.1L8.35 5.35H14.05C15 5.35 15.75 6.1 15.75 7.05V13.05C15.75 14 15 14.75 14.05 14.75H3.95C3 14.75 2.25 14 2.25 13.05V5.75Z" stroke="currentColor" stroke-width="1.35" stroke-linejoin="round"/>
<path d="M2.55 7.4H15.45" stroke="currentColor" stroke-width="1.35" stroke-linecap="round"/>
</svg>
