<svg preserveAspectRatio="none" width="100%" height="100%" overflow="visible" style="display: block;" viewBox="0 0 102 117" fill="none" xmlns="http://www.w3.org/2000/svg">
<path d="M51 112C76.4 112 97 91.4 97 66C97 40.6 76.4 20 51 20C25.6 20 5 40.6 5 66C5 91.4 25.6 112 51 112Z" fill="currentColor" opacity="0.08"/>
<path d="M51 112C76.4 112 97 91.4 97 66C97 40.6 76.4 20 51 20C25.6 20 5 40.6 5 66C5 91.4 25.6 112 51 112Z" stroke="currentColor" stroke-width="3"/>
<path d="M37 4.5H65C68 4.5 70.5 7 70.5 10V14.5C70.5 17.5 68 20 65 20H58.5V28H43.5V20H37C34 20 31.5 17.5 31.5 14.5V10C31.5 7 34 4.5 37 4.5Z" fill="currentColor" opacity="0.12"/>
<path d="M37 4.5H65C68 4.5 70.5 7 70.5 10V14.5C70.5 17.5 68 20 65 20H58.5V28H43.5V20H37C34 20 31.5 17.5 31.5 14.5V10C31.5 7 34 4.5 37 4.5Z" stroke="currentColor" stroke-width="3" stroke-linejoin="round"/>
<path d="M51 36V66L72 54" stroke="currentColor" stroke-width="5" stroke-linecap="round" stroke-linejoin="round"/>
<path d="M51 66L60.2 60.8L51 55.6V66Z" fill="currentColor" opacity="0.18"/>
<path d="M18 82C24.2 99.5 39.4 110 57.5 110" stroke="currentColor" stroke-width="2.4" stroke-linecap="round" opacity="0.35"/>
<path d="M83.5 42.5C91.5 52.5 94.4 65.5 91.3 78.1" stroke="currentColor" stroke-width="2.4" stroke-linecap="round" opacity="0.35"/>
</svg>
