<svg preserveAspectRatio="none" width="100%" height="100%" overflow="visible" style="display: block;" viewBox="0 0 23 23" fill="none" xmlns="http://www.w3.org/2000/svg">
<path d="M11.5 4.5C7.1 4.5 3.5 7.15 2 11.5C3.5 15.85 7.1 18.5 11.5 18.5C15.9 18.5 19.5 15.85 21 11.5C19.5 7.15 15.9 4.5 11.5 4.5Z" fill="currentColor" opacity="0.12"/>
<path d="M11.5 4.5C7.1 4.5 3.5 7.15 2 11.5C3.5 15.85 7.1 18.5 11.5 18.5C15.9 18.5 19.5 15.85 21 11.5C19.5 7.15 15.9 4.5 11.5 4.5Z" stroke="currentColor" stroke-width="1.6" stroke-linejoin="round"/>
<circle cx="11.5" cy="11.5" r="3.1" stroke="currentColor" stroke-width="1.6"/>
<circle cx="11.5" cy="11.5" r="1.25" fill="currentColor"/>
</svg>
