<svg width="20" height="20" viewBox="0 0 20 20" fill="none" xmlns="http://www.w3.org/2000/svg">
<path d="M5 8.5C5 5.75 6.9 3.75 10 3.75C13.1 3.75 15 5.75 15 8.5V10.9L16.55 13.3C16.8 13.7 16.5 14.25 16.02 14.25H3.98C3.5 14.25 3.2 13.7 3.45 13.3L5 10.9V8.5Z" fill="currentColor" opacity="0.12"/>
<path d="M5 8.5C5 5.75 6.9 3.75 10 3.75C13.1 3.75 15 5.75 15 8.5V10.9L16.55 13.3C16.8 13.7 16.5 14.25 16.02 14.25H3.98C3.5 14.25 3.2 13.7 3.45 13.3L5 10.9V8.5Z" stroke="currentColor" stroke-width="1.45" stroke-linejoin="round"/>
<path d="M8 15.5C8.35 16.35 9.05 16.8 10 16.8C10.95 16.8 11.65 16.35 12 15.5" stroke="currentColor" stroke-width="1.45" stroke-linecap="round"/>
</svg>
