<svg width="20" height="20" viewBox="0 0 20 20" fill="none" xmlns="http://www.w3.org/2000/svg">
<circle cx="8" cy="7" r="2.75" fill="currentColor" opacity="0.14"/>
<circle cx="8" cy="7" r="2.75" stroke="currentColor" stroke-width="1.45"/>
<path d="M3.25 15.6C3.65 13.2 5.45 11.85 8 11.85C10.55 11.85 12.35 13.2 12.75 15.6" fill="currentColor" opacity="0.12"/>
<path d="M3.25 15.6C3.65 13.2 5.45 11.85 8 11.85C10.55 11.85 12.35 13.2 12.75 15.6" stroke="currentColor" stroke-width="1.45" stroke-linecap="round"/>
<circle cx="13.6" cy="7.7" r="2.05" fill="currentColor" opacity="0.12"/>
<path d="M12.1 5.95C12.5 5.75 13 5.65 13.55 5.65C14.7 5.65 15.65 6.6 15.65 7.75C15.65 8.9 14.7 9.85 13.55 9.85C13 9.85 12.5 9.75 12.1 9.55" stroke="currentColor" stroke-width="1.35" stroke-linecap="round"/>
<path d="M13.2 12C15.1 12.15 16.4 13.25 16.75 15.15" stroke="currentColor" stroke-width="1.35" stroke-linecap="round"/>
</svg>
