<svg preserveAspectRatio="none" width="100%" height="100%" overflow="visible" style="display: block;" viewBox="0 0 32 32" fill="none" xmlns="http://www.w3.org/2000/svg">
<path d="M16 3.5L18.6 11.1L26.5 13.5L18.6 15.9L16 23.5L13.4 15.9L5.5 13.5L13.4 11.1L16 3.5Z" fill="currentColor" opacity="0.14"/>
<path d="M16 3.5L18.6 11.1L26.5 13.5L18.6 15.9L16 23.5L13.4 15.9L5.5 13.5L13.4 11.1L16 3.5Z" stroke="currentColor" stroke-width="1.6" stroke-linejoin="round"/>
<path d="M24 21L25.1 24.1L28.3 25L25.1 25.9L24 29L22.9 25.9L19.7 25L22.9 24.1L24 21Z" fill="currentColor" opacity="0.18"/>
<path d="M8.5 22.5L9.2 24.5L11.3 25.1L9.2 25.7L8.5 27.7L7.8 25.7L5.7 25.1L7.8 24.5L8.5 22.5Z" fill="currentColor"/>
</svg>
